<svg xmlns="http://www.w3.org/2000/svg" viewBox="0 0 100 100" width="100" height="100">
  <title>VetsAI icon</title>
  <rect x="0" y="0" width="100" height="100" rx="22" fill="#1a3d2b"/>
  <g transform="translate(52,5) scale(0.305)">
    <polygon fill="#97bc62" points="58.49,5.76 49.34,6.91 36.72,8.06 35.98,9.21 34.87,11.51 29.92,13.82 29.3,14.97 28.81,16.12 28.19,17.27 27.82,18.42 27.57,19.57 27.7,20.72 27.94,21.88 27.45,23.03 26.71,24.18 25.6,25.33 24.23,26.48 22.13,27.63 20.9,28.78 20.28,29.93 19.29,31.09 10.88,32.24 9.77,33.39 18.18,34.54 9.89,35.69 10.26,36.84 15.95,37.99 15.46,39.14 15.09,40.3 14.22,41.45 13.97,42.6 14.1,43.75 14.47,44.9 14.59,46.05 19.66,47.2 14.59,48.36 14.71,49.51 14.84,50.66 14.59,51.81 14.34,52.96 13.97,54.11 13.72,55.26 4.33,56.41 12.24,57.57 5.94,58.72 4.08,59.87 12.98,61.02 7.42,62.17 2.1,63.32 4.08,64.47 14.96,65.62 15.33,66.78 16.45,67.93 16.82,69.08 16.57,70.23 15.83,71.38 9.27,72.53 9.77,73.68 19.29,74.84 19.91,75.99 19.41,77.14 22.26,78.29 15.95,79.44 15.83,80.59 26.34,81.74 29.3,82.89 43.52,84.05 45.26,85.2 60.09,86.35 62.81,87.5 62.81,88.65 62.69,89.8 62.32,90.95 62.44,92.11 62.19,93.26 61.95,94.41 61.95,95.56 61.95,96.71 62.19,97.86 62.81,99.01 63.8,100.16 64.67,101.32 65.66,102.47 66.52,103.62 67.39,104.77 68.87,109.38 69.12,110.53 69.49,111.68 69.98,112.83 69.74,113.98 69.61,115.13 28.44,116.28 28.07,117.43 27.82,118.59 69.86,119.74 29.55,120.89 28.81,122.04 28.69,123.19 67.51,124.34 67.26,125.49 67.02,126.64 66.52,127.8 66.52,128.95 66.4,130.1 66.4,131.25 66.89,132.4 67.51,133.55 67.88,134.7 68.25,135.86 68.62,137.01 69.24,138.16 69.74,139.31 70.11,140.46 70.73,141.61 70.97,142.76 71.1,143.91 71.22,145.07 71.47,146.22 71.47,147.37 71.59,148.52 71.84,149.67 72.09,150.82 72.21,151.97 72.46,153.12 73.08,154.28 73.57,155.43 74.31,156.58 75.18,157.73 75.3,158.88 75.67,160.03 76.54,162.34 77.03,163.49 77.4,164.64 77.53,169.24 79.01,170.39 81.48,170.39 90.26,169.24 102.75,164.64 105.1,163.49 105.1,162.34 100.53,160.03 101.14,158.88 102.01,157.73 103.25,156.58 112.15,155.43 130.45,154.28 132.92,153.12 133.42,151.97 133.79,150.82 134.28,149.67 134.78,148.52 135.15,147.37 144.42,146.22 149.0,145.07 142.44,143.91 136.88,142.76 137.25,141.61 137.74,140.46 138.11,139.31 138.49,138.16 138.98,137.01 139.23,135.86 139.97,134.7 140.22,133.55 140.09,132.4 141.21,131.25 141.21,130.1 140.83,128.95 140.71,127.8 140.71,126.64 140.46,125.49 140.34,124.34 139.72,123.19 139.35,122.04 130.7,120.89 134.4,119.74 134.53,118.59 154.06,117.43 152.83,116.28 150.85,115.13 119.07,113.98 148.75,112.83 154.81,111.68 153.32,110.53 118.95,109.38 119.81,104.77 119.07,103.62 119.57,102.47 148.75,101.32 148.62,100.16 142.81,99.01 122.29,97.86 123.15,96.71 150.23,95.56 148.13,94.41 146.28,93.26 126.37,92.11 127.11,90.95 128.22,89.8 128.84,88.65 130.45,87.5 131.68,86.35 132.43,85.2 133.29,84.05 134.03,82.89 134.65,81.74 135.27,80.59 135.64,79.44 136.01,78.29 136.51,77.14 136.75,75.99 137.25,74.84 137.62,73.68 138.24,72.53 138.49,71.38 138.49,70.23 138.86,69.08 138.86,67.93 126.62,66.78 134.28,65.62 134.03,64.47 130.7,63.32 124.51,62.17 123.77,61.02 122.53,59.87 121.05,58.72 120.19,57.57 123.28,56.41 120.19,55.26 119.44,54.11 119.32,52.96 118.95,51.81 118.58,50.66 116.48,49.51 116.23,48.36 115.86,47.2 115.86,46.05 115.86,44.9 115.61,43.75 115.36,42.6 114.99,41.45 114.62,40.3 113.63,39.14 112.15,37.99 111.78,36.84 110.91,35.69 110.42,34.54 109.92,33.39 109.43,32.24 108.81,31.09 108.32,29.93 107.82,28.78 109.3,27.63 109.06,26.48 109.18,25.33 109.18,24.18 108.81,23.03 108.44,21.88 107.94,20.72 104.73,19.57 90.88,18.42 87.17,17.27 86.43,16.12 67.51,14.97 65.41,13.82 65.78,11.51 66.4,9.21 94.96,8.06 91.99,6.91 64.42,5.76"/>
  </g>
  <ellipse cx="22" cy="64" rx="6.5" ry="5.5" fill="white"/>
  <ellipse cx="38" cy="58" rx="6.5" ry="5.5" fill="white"/>
  <ellipse cx="54" cy="64" rx="6.5" ry="5.5" fill="white"/>
  <ellipse cx="38" cy="78" rx="13" ry="10" fill="white"/>
  <path d="M8,84 L15,84 L18,75 L22,87 L26,77 L38,77 L50,77 L54,75 L58,87 L62,77 L68,84" fill="none" stroke="#97bc62" stroke-width="3" stroke-linecap="round" stroke-linejoin="round"/>
</svg>
